<svg width="73" height="66" viewBox="0 0 73 66" fill="none" xmlns="http://www.w3.org/2000/svg">
<path d="M39.5 63H65C66.5913 63 68.1174 62.3573 69.2426 61.2133C70.3679 60.0694 71 58.5178 71 56.9V17.25L56 2H29C27.4087 2 25.8826 2.64268 24.7574 3.78665C23.6321 4.93062 23 6.48218 23 8.1V20.3M53 2V14.2C53 15.8178 53.6321 17.3694 54.7574 18.5134C55.8826 19.6573 57.4087 20.3 59 20.3H71" stroke="#3654FF" stroke-width="4" stroke-linecap="round" stroke-linejoin="round"/>
<path d="M55 29V49M60 32H52.5C51.5717 32 50.6815 32.3687 50.0251 33.0251C49.3687 33.6815 49 34.5717 49 35.5C49 36.4283 49.3687 37.3185 50.0251 37.9749C50.6815 38.6313 51.5717 39 52.5 39H57.5C58.4283 39 59.3185 39.3687 59.9749 40.0251C60.6313 40.6815 61 41.5717 61 42.5C61 43.4283 60.6313 44.3185 59.9749 44.9749C59.3185 45.6313 58.4283 46 57.5 46H49" stroke="#3654FF" stroke-width="4" stroke-linecap="round" stroke-linejoin="round"/>
<circle cx="20.5" cy="45.5" r="18.5" stroke="#3654FF" stroke-width="4"/>
<path d="M20.7178 53.6474C27.1513 54.684 28.7401 46.4522 22.3066 45.4144M20.7178 53.6474L13 52.403M20.7178 53.6474L20.2658 56M17.1601 44.5856L22.3079 45.4144C28.7414 46.4522 30.3302 38.2192 23.8954 37.1826L16.1749 35.9382M23.8941 37.1826L24.3487 34.83M15.1166 55.17L19.2009 34" stroke="#3654FF" stroke-width="4" stroke-linecap="round" stroke-linejoin="round"/>
</svg>
