<svg width="400" height="350" viewBox="0 0 400 350" fill="none" xmlns="http://www.w3.org/2000/svg">
  <!-- Document stack -->
  <rect x="120" y="80" width="160" height="200" rx="8" fill="#e5e7eb" transform="rotate(-5 120 80)"/>
  <rect x="110" y="70" width="160" height="200" rx="8" fill="#f5f7fa" transform="rotate(-2 110 70)"/>
  <rect x="100" y="60" width="160" height="200" rx="8" fill="white" stroke="#e5e7eb" stroke-width="2"/>

  <!-- Document lines -->
  <rect x="120" y="90" width="120" height="8" rx="4" fill="#e5e7eb"/>
  <rect x="120" y="110" width="100" height="8" rx="4" fill="#e5e7eb"/>
  <rect x="120" y="130" width="110" height="8" rx="4" fill="#e5e7eb"/>
  <rect x="120" y="150" width="80" height="8" rx="4" fill="#e5e7eb"/>

  <!-- Checkmarks -->
  <circle cx="240" cy="180" r="30" fill="#10b981"/>
  <path d="M225 180L235 190L255 170" stroke="white" stroke-width="4" stroke-linecap="round" stroke-linejoin="round"/>

  <!-- Shield -->
  <path d="M300 100L340 120V160C340 185 325 205 300 215C275 205 260 185 260 160V120L300 100Z" fill="#3654ff"/>
  <path d="M285 155L295 165L315 145" stroke="white" stroke-width="3" stroke-linecap="round" stroke-linejoin="round"/>

  <!-- Label -->
  <text x="200" y="320" font-family="Arial, sans-serif" font-size="12" fill="#6f717d" text-anchor="middle">Compliance-Ready Infrastructure</text>
</svg>