<svg width="161" height="80" viewBox="0 0 161 80" fill="none" xmlns="http://www.w3.org/2000/svg">
<rect x="20" y="16" width="123" height="47" fill="white"/>
<path d="M160.576 17.4091C160.576 15.9799 160.622 10.0988 160.554 8.66959C160.463 5.83388 159.17 3.61068 156.856 2C155.359 0.956458 153.68 0.570801 151.842 0.570801C109.579 0.593486 51.6709 0.570801 9.40745 0.570801C9.11254 0.570801 8.79494 0.570801 8.50003 0.570801C7.13889 0.570801 5.89117 0.956458 4.7342 1.63703C1.89849 3.33846 0.446606 5.85657 0.446606 9.14599C0.42392 19.5134 0.446606 34.2872 0.446606 44.6546C0.446606 49.3052 0.42392 53.9557 0.446606 58.6063C0.469292 74.2832 1.55821 76.5064 3.66797 78.1851C5.30134 79.4782 7.16157 80 9.24865 80C19.7975 79.9773 38.1504 79.9773 48.6993 79.9773C59.2481 79.9773 69.797 79.9773 80.3458 79.9773C101.375 79.9773 130.223 79.9773 151.253 79.9773C151.661 79.9773 152.092 79.9773 152.5 79.9773C154.633 79.9093 156.47 79.1379 157.99 77.6634C159.805 75.9166 160.599 73.7614 160.599 58.2433C160.554 44.6319 160.576 31.0205 160.576 17.4091ZM52.8054 41.8869C51.6938 46.2653 48.9261 49.0556 44.5932 50.2126C41.7575 50.9612 38.8991 50.9159 36.1087 50.0311C31.9572 48.6927 29.2803 45.8116 27.9872 41.7055C26.7395 37.7582 26.7395 33.7201 28.1687 29.8182C29.9609 24.8727 33.5226 22.0143 38.7629 21.311C42.5741 20.7893 46.0451 21.6286 49.0623 24.0333C51.2174 25.7574 52.4651 28.0033 52.8961 30.7936C52.6693 30.839 52.4878 30.9071 52.3063 30.9071C50.6729 30.9071 49.0623 30.9071 47.4289 30.9298C46.9752 30.9298 46.6803 30.839 46.4761 30.3399C45.5687 27.9579 43.7311 26.801 41.2584 26.6195C38.468 26.4153 36.2221 27.4362 34.7703 29.8862C33.9082 31.3381 33.4772 32.9261 33.4091 34.6048C33.3184 36.6466 33.3411 38.6883 34.1124 40.6392C34.9517 42.7944 36.3356 44.4051 38.6722 44.9949C40.6232 45.494 42.5741 45.4032 44.389 44.4731C46.0224 43.6337 46.8844 42.2272 47.202 40.4577C47.3608 39.6411 47.2474 39.5276 46.4307 39.5276C44.9561 39.5049 43.4816 39.5276 42.007 39.5276C41.1223 39.5276 41.1223 39.5049 41.0996 38.6883C41.0769 37.7128 41.1223 36.7146 41.0996 35.7391C41.0769 35.172 41.2357 34.9451 41.8482 34.9451C45.3645 34.9678 48.8808 34.9451 52.397 34.9678C52.76 34.9678 53.191 34.8998 53.1684 35.4896C53.1003 37.622 53.3272 39.7772 52.8054 41.8869ZM75.8541 49.3959C75.8541 50.3487 75.8314 50.3487 74.924 50.3714C73.6082 50.3941 72.2697 50.3941 70.9539 50.3714C70.1599 50.3714 70.16 50.3487 70.1373 49.5093C70.1146 48.8741 70.1373 48.2616 70.1373 47.3996C69.865 47.7172 69.7516 47.8533 69.6382 47.9894C68.4358 49.6681 66.8025 50.5756 64.7607 50.6436C63.6038 50.689 62.4014 50.6663 61.2898 50.4168C57.5467 49.5774 56.1856 46.4921 56.6166 43.2481C56.9115 41.0249 58.1592 39.4823 60.2009 38.6883C61.4486 38.2119 62.8098 37.9396 64.1255 37.7128C65.3733 37.4859 66.6664 37.4179 67.9368 37.2137C68.7534 37.1003 69.6155 36.9188 69.8424 35.8979C70.0465 34.9905 69.434 33.7882 68.5946 33.2891C66.9159 32.3363 64.2163 32.9261 63.2635 34.5595C62.8778 35.2174 62.4922 35.3081 61.8343 35.24C60.5866 35.1039 59.3616 35.0586 58.1138 34.9678C57.4333 34.9224 57.2972 34.7636 57.5013 34.1284C58.1365 32.1775 59.3616 30.7256 61.1764 29.7047C62.8098 28.7973 64.5793 28.457 66.3941 28.4343C68.7534 28.4116 71.0674 28.7519 73.0637 30.1584C74.8559 31.4062 75.8314 33.1303 75.8541 35.3308C75.8768 40.0267 75.8541 44.7227 75.8541 49.3959ZM86.4937 22.9444C86.4937 27.3227 86.4937 31.7238 86.4937 36.1021C86.4937 40.367 86.4937 44.6546 86.4937 48.9195C86.4937 49.2144 86.4937 49.532 86.4937 49.8269C86.4937 50.2126 86.2895 50.3714 85.9265 50.3714C84.2931 50.3714 82.6825 50.3714 81.0491 50.3714C80.6634 50.3714 80.5046 50.1672 80.5046 49.8043C80.5046 49.5774 80.5046 49.3505 80.5046 49.1237C80.5046 40.3443 80.5046 31.5876 80.5046 22.8083C80.5046 22.6268 80.5273 22.4226 80.5046 22.2411C80.482 21.7874 80.6407 21.5606 81.1398 21.5606C82.7278 21.5832 84.3158 21.5832 85.9038 21.5606C86.3349 21.5606 86.539 21.7194 86.4937 22.1504C86.471 22.4226 86.4937 22.6948 86.4937 22.9444ZM110.994 43.7245C109.746 47.7625 106.412 50.4168 102.169 50.689C101.761 50.7117 101.33 50.7344 100.922 50.7571C97.5189 50.7797 94.6378 49.6681 92.5054 46.9005C91.235 45.2217 90.5998 43.3161 90.3956 41.2517C90.0553 37.8262 90.6224 34.6275 92.9137 31.9052C94.5244 29.9996 96.6115 29.0015 99.0615 28.6385C100.854 28.3663 102.623 28.4343 104.325 28.9561C108.476 30.2265 110.699 33.1983 111.403 37.3725C111.788 39.4823 111.652 41.6147 110.994 43.7245ZM133.226 33.4932C131.026 39.7545 128.848 45.9931 126.625 52.2543C126.284 53.2071 125.853 54.1372 125.332 54.9993C123.948 57.2225 121.838 58.2887 119.274 58.3568C118.049 58.3795 116.802 58.2433 115.577 58.0619C114.737 57.9484 114.692 57.7896 114.919 56.9956C115.214 55.9748 115.509 54.9766 115.804 53.9557C115.94 53.502 116.121 53.2071 116.688 53.434C116.915 53.5247 117.21 53.5247 117.46 53.5474C119.456 53.7743 120.068 52.8895 120.658 51.0973C120.749 50.8478 120.59 50.5075 120.5 50.2353C118.707 45.0856 116.915 39.9133 115.1 34.7636C114.51 33.0622 113.921 31.3381 113.331 29.6367C113.24 29.3871 113.217 29.1376 113.127 28.82C113.467 28.7973 113.762 28.7292 114.057 28.7292C115.486 28.7292 116.938 28.7292 118.367 28.7292C119.343 28.7292 119.365 28.7519 119.615 29.6367C120.908 34.2419 122.201 38.8471 123.494 43.4523C123.585 43.7699 123.698 44.0648 123.993 44.3824C124.401 43.0439 124.787 41.6828 125.173 40.3443C126.194 36.7827 127.192 33.2437 128.19 29.682C128.462 28.7292 128.462 28.7292 129.392 28.7292C130.912 28.7292 132.41 28.7292 133.929 28.7292C134.179 28.7292 134.451 28.7746 134.792 28.82C134.27 30.4534 133.748 31.9733 133.226 33.4932Z" fill="#3654FF"/>
<path d="M65.419 41.3878C64.6704 41.5693 63.8764 41.8189 63.2412 42.2726C61.7666 43.3161 62.0388 45.494 63.6949 46.2426C64.5116 46.6282 65.3963 46.6056 66.2584 46.5148C68.2093 46.3106 69.752 44.768 69.8881 42.9078C69.9334 42.1138 69.8881 41.3198 69.8881 40.5938C68.3454 40.8434 66.8709 41.0476 65.419 41.3878Z" fill="#3654FF"/>
<path d="M101.625 33.1301C99.561 32.9033 98.0183 33.7653 97.2017 35.6709C97.1336 35.8297 97.0655 35.9885 97.0202 36.1246C96.6345 37.2136 96.453 38.3478 96.4757 39.5048C96.453 40.8206 96.6118 42.0683 97.1336 43.2706C97.2017 43.4294 97.2924 43.6109 97.3831 43.7697C98.1545 45.2216 99.3114 46.0383 101.013 46.0383C102.714 46.0383 103.917 45.2216 104.597 43.7244C105.89 40.8206 105.913 37.8714 104.416 35.013C103.803 33.9922 102.896 33.2889 101.625 33.1301Z" fill="#3654FF"/>
<path d="M96.9977 36.1475C96.6121 37.2364 96.4306 38.3707 96.4533 39.5503C96.4306 40.8661 96.5894 42.1138 97.1111 43.3162C96.5894 42.1365 96.4306 40.8661 96.4533 39.5503C96.4533 38.3707 96.6121 37.2364 96.9977 36.1475Z" fill="#3654FF"/>
</svg>
