<svg width="390" height="167" viewBox="0 0 390 167" fill="none" xmlns="http://www.w3.org/2000/svg">
<path d="M389.205 33.4244C389.205 29.5748 389.327 25.6641 389.144 21.8145C388.9 14.1764 385.416 8.18807 379.184 3.84962C375.151 1.03879 370.629 0 365.68 0C251.841 0.061105 138.002 0 24.1636 0C23.3693 0 22.5138 0 21.7194 0C18.0531 0 14.6924 1.03879 11.576 2.87194C3.93788 7.45481 0.0271578 14.2375 0.0271578 23.0977C-0.0339472 51.0227 0.0271578 78.8866 0.0271578 106.812C0.0271578 119.338 -0.0339472 131.865 0.0271578 144.391C0.0882628 151.602 3.0213 157.59 8.70407 162.112C13.1036 165.595 18.1142 167 23.7359 167C52.1497 166.939 80.5636 166.939 108.977 166.939C137.391 166.939 165.805 166.939 194.219 166.939C250.863 166.939 307.447 166.939 364.091 166.939C365.191 166.939 366.352 166.939 367.452 166.939C373.196 166.756 378.145 164.678 382.239 160.706C387.127 156.001 389.266 150.196 389.266 143.413C389.144 106.75 389.205 70.0875 389.205 33.4244ZM120.037 99.3568C117.043 111.15 109.588 118.666 97.9174 121.782C90.2793 123.799 82.58 123.677 75.0641 121.293C63.8819 117.688 56.6715 109.928 53.1885 98.8679C49.8277 88.2356 49.8277 77.3589 53.6774 66.8489C58.5047 53.528 68.0982 45.8288 82.2134 43.9345C92.479 42.5291 101.828 44.79 109.955 51.2671C115.76 55.9111 119.121 61.9605 120.282 69.4764C119.671 69.5986 119.182 69.7819 118.693 69.7819C114.294 69.7819 109.955 69.7819 105.556 69.843C104.333 69.843 103.539 69.5986 102.989 68.2543C100.545 61.8383 95.5954 58.7219 88.935 58.2331C81.419 57.6831 75.3696 60.4329 71.4589 67.0322C69.1369 70.9429 67.9759 75.2203 67.7926 79.7421C67.5482 85.2415 67.6093 90.741 69.6869 95.996C71.9478 101.801 75.6752 106.139 81.969 107.728C87.224 109.072 92.479 108.828 97.3674 106.323C101.767 104.062 104.089 100.273 104.944 95.5071C105.372 93.3074 105.067 93.0018 102.867 93.0018C98.8951 92.9407 94.9232 93.0018 90.9514 93.0018C88.5683 93.0018 88.5683 92.9407 88.5072 90.741C88.4461 88.1134 88.5683 85.4248 88.5072 82.7973C88.4461 81.2697 88.8738 80.6586 90.5237 80.6586C99.995 80.7197 109.466 80.6586 118.938 80.7197C119.915 80.7197 121.076 80.5364 121.015 82.1251C120.832 87.869 121.443 93.674 120.037 99.3568ZM182.12 119.583C182.12 122.149 182.059 122.149 179.615 122.21C176.071 122.271 172.465 122.271 168.921 122.21C166.783 122.21 166.783 122.149 166.722 119.888C166.661 118.177 166.722 116.527 166.722 114.205C165.988 115.061 165.683 115.427 165.377 115.794C162.139 120.316 157.739 122.76 152.24 122.943C149.123 123.066 145.885 123.004 142.891 122.332C132.808 120.071 129.142 111.761 130.303 103.023C131.097 97.0348 134.458 92.8796 139.958 90.741C143.318 89.4577 146.985 88.7245 150.529 88.1134C153.89 87.5024 157.373 87.3191 160.794 86.7691C162.994 86.4636 165.316 85.9748 165.927 83.225C166.477 80.7808 164.827 77.5423 162.567 76.198C158.045 73.6315 150.773 75.2203 148.207 79.6198C147.168 81.3919 146.129 81.6363 144.357 81.453C140.996 81.0864 137.697 80.9641 134.336 80.7197C132.503 80.5975 132.136 80.1698 132.686 78.4588C134.397 73.2038 137.697 69.2931 142.585 66.5434C146.985 64.0992 151.751 63.1826 156.639 63.1215C162.994 63.0604 169.227 63.977 174.604 67.7655C179.431 71.1262 182.059 75.7702 182.12 81.6974C182.181 94.3461 182.12 106.995 182.12 119.583ZM210.778 48.3341C210.778 60.1273 210.778 71.9817 210.778 83.775C210.778 95.2627 210.778 106.812 210.778 118.299C210.778 119.094 210.778 119.949 210.778 120.744C210.778 121.782 210.228 122.21 209.251 122.21C204.851 122.21 200.513 122.21 196.113 122.21C195.074 122.21 194.647 121.66 194.647 120.682C194.647 120.071 194.647 119.46 194.647 118.849C194.647 95.2016 194.647 71.6151 194.647 47.9674C194.647 47.4786 194.708 46.9287 194.647 46.4398C194.586 45.2177 195.013 44.6067 196.358 44.6067C200.635 44.6678 204.912 44.6678 209.19 44.6067C210.351 44.6067 210.901 45.0344 210.778 46.1954C210.717 46.9287 210.778 47.6619 210.778 48.3341ZM276.772 104.306C273.411 115.183 264.429 122.332 253.002 123.066C251.902 123.127 250.741 123.188 249.641 123.249C240.475 123.31 232.715 120.316 226.971 112.861C223.549 108.339 221.838 103.206 221.288 97.6458C220.372 88.419 221.899 79.8031 228.071 72.4705C232.41 67.3377 238.031 64.6491 244.631 63.6714C249.458 62.9382 254.224 63.1215 258.807 64.5269C269.989 67.9488 275.977 75.9535 277.872 87.1969C278.91 92.8796 278.544 98.6235 276.772 104.306ZM336.655 76.7479C330.727 93.6129 324.861 110.417 318.873 127.282C317.957 129.848 316.796 132.353 315.39 134.675C311.663 140.664 305.98 143.536 299.075 143.719C295.775 143.78 292.415 143.413 289.115 142.925C286.854 142.619 286.732 142.191 287.343 140.053C288.137 137.303 288.932 134.614 289.726 131.865C290.093 130.643 290.581 129.848 292.109 130.459C292.72 130.704 293.515 130.704 294.187 130.765C299.564 131.376 301.214 128.993 302.802 124.165C303.047 123.493 302.619 122.577 302.375 121.843C297.547 107.973 292.72 94.0406 287.832 80.1698C286.243 75.5869 284.654 70.9429 283.066 66.36C282.821 65.6879 282.76 65.0157 282.516 64.1603C283.432 64.0992 284.227 63.9158 285.021 63.9158C288.871 63.9158 292.781 63.9158 296.631 63.9158C299.258 63.9158 299.32 63.977 299.992 66.36C303.475 78.7644 306.958 91.1687 310.441 103.573C310.685 104.428 310.991 105.223 311.785 106.078C312.885 102.473 313.924 98.8068 314.962 95.2016C317.712 85.6081 320.401 76.0758 323.089 66.4823C323.823 63.9159 323.823 63.9158 326.328 63.9158C330.422 63.9158 334.455 63.9158 338.549 63.9158C339.221 63.9158 339.954 64.0381 340.871 64.1603C339.466 68.5598 338.06 72.6539 336.655 76.7479Z" fill="white"/>
<path d="M154.012 98.0132C151.996 98.502 149.857 99.1742 148.146 100.396C144.174 103.207 144.908 109.073 149.368 111.09C151.568 112.128 153.951 112.067 156.273 111.823C161.528 111.273 165.683 107.118 166.05 102.107C166.172 99.9686 166.05 97.8299 166.05 95.8745C161.895 96.5467 157.923 97.0966 154.012 98.0132Z" fill="white"/>
<path d="M251.536 75.7707C245.976 75.1596 241.821 77.4816 239.621 82.6144C239.438 83.0422 239.254 83.4699 239.132 83.8365C238.093 86.7696 237.604 89.8248 237.665 92.9412C237.604 96.4853 238.032 99.846 239.437 103.085C239.621 103.512 239.865 104.001 240.11 104.429C242.187 108.34 245.304 110.539 249.886 110.539C254.469 110.539 257.708 108.34 259.541 104.307C263.024 96.4853 263.085 88.5416 259.052 80.8424C257.402 78.0927 254.958 76.1984 251.536 75.7707Z" fill="white"/>
<path d="M239.071 83.8975C238.032 86.8305 237.543 89.8858 237.604 93.0632C237.543 96.6073 237.971 99.9681 239.377 103.207C237.971 100.029 237.543 96.6073 237.604 93.0632C237.604 89.8858 238.032 86.8305 239.071 83.8975Z" fill="white"/>
</svg>
