<svg width="500" height="350" viewBox="0 0 500 350" fill="none" xmlns="http://www.w3.org/2000/svg">
  <!-- Components -->
  <rect x="50" y="50" width="120" height="60" rx="8" fill="#f5f7fa" stroke="#e5e7eb" stroke-width="2"/>
  <text x="110" y="85" font-family="Arial, sans-serif" font-size="11" fill="#17181c" text-anchor="middle">Loan Origination</text>

  <rect x="190" y="50" width="120" height="60" rx="8" fill="#f5f7fa" stroke="#e5e7eb" stroke-width="2"/>
  <text x="250" y="85" font-family="Arial, sans-serif" font-size="11" fill="#17181c" text-anchor="middle">LTV Monitor</text>

  <rect x="330" y="50" width="120" height="60" rx="8" fill="#f5f7fa" stroke="#e5e7eb" stroke-width="2"/>
  <text x="390" y="85" font-family="Arial, sans-serif" font-size="11" fill="#17181c" text-anchor="middle">Margin Calls</text>

  <!-- Core -->
  <rect x="120" y="150" width="260" height="80" rx="12" fill="#3654ff"/>
  <text x="250" y="195" font-family="Arial, sans-serif" font-size="16" font-weight="600" fill="white" text-anchor="middle">Lana Core Engine</text>

  <!-- Bottom integrations -->
  <rect x="50" y="270" width="100" height="50" rx="6" fill="#f5f7fa" stroke="#3654ff" stroke-width="2"/>
  <text x="100" y="300" font-family="Arial, sans-serif" font-size="10" fill="#17181c" text-anchor="middle">Price Feeds</text>

  <rect x="170" y="270" width="100" height="50" rx="6" fill="#f5f7fa" stroke="#3654ff" stroke-width="2"/>
  <text x="220" y="300" font-family="Arial, sans-serif" font-size="10" fill="#17181c" text-anchor="middle">Custody</text>

  <rect x="290" y="270" width="100" height="50" rx="6" fill="#f5f7fa" stroke="#3654ff" stroke-width="2"/>
  <text x="340" y="300" font-family="Arial, sans-serif" font-size="10" fill="#17181c" text-anchor="middle">Exchanges</text>

  <!-- Arrows -->
  <path d="M110 110V150" stroke="#6f717d" stroke-width="1" stroke-dasharray="4,4"/>
  <path d="M250 110V150" stroke="#6f717d" stroke-width="1" stroke-dasharray="4,4"/>
  <path d="M390 110V150" stroke="#6f717d" stroke-width="1" stroke-dasharray="4,4"/>
  <path d="M250 230V270" stroke="#6f717d" stroke-width="1" stroke-dasharray="4,4"/>
</svg>