<svg width="20" height="20" viewBox="0 0 20 20" fill="none" xmlns="http://www.w3.org/2000/svg">
<path fill-rule="evenodd" clip-rule="evenodd" d="M12.5091 4.27074C10.8074 4.945 7.40641 6.34056 2.30615 8.4574C1.47795 8.77115 1.0441 9.07809 1.0046 9.37821C0.937855 9.88542 1.60461 10.0852 2.51256 10.3571C2.63607 10.3941 2.76404 10.4325 2.89523 10.4731C3.78851 10.7497 4.99014 11.0733 5.61482 11.0862C6.18146 11.0978 6.81389 10.8753 7.51212 10.4185C12.2775 7.35418 14.7373 5.8053 14.8918 5.77191C15.0007 5.74835 15.1517 5.71873 15.254 5.80535C15.3563 5.89197 15.3463 6.05601 15.3354 6.10001C15.2694 6.36826 12.6521 8.68625 11.2977 9.88582C10.8754 10.2598 10.5759 10.525 10.5147 10.5856C10.3775 10.7213 10.2377 10.8497 10.1034 10.9731C9.27351 11.7352 8.65117 12.3067 10.1378 13.24C10.8523 13.6885 11.424 14.0594 11.9943 14.4294C12.6172 14.8335 13.2384 15.2365 14.0422 15.7384C14.247 15.8663 14.4426 15.9992 14.6331 16.1285C15.358 16.6208 16.0092 17.0631 16.8138 16.9926C17.2813 16.9516 17.7642 16.5328 18.0094 15.2838C18.589 12.3322 19.7283 5.93675 19.9916 3.30136C20.0146 3.07046 19.9856 2.77496 19.9623 2.64524C19.939 2.51553 19.8903 2.33071 19.7133 2.19389C19.5037 2.03186 19.1801 1.99769 19.0354 2.00012C18.3773 2.01116 17.3677 2.34558 12.5091 4.27074Z" fill="white"/>
</svg>
